<svg height="512" viewBox="0 0 64 64" width="512" xmlns="http://www.w3.org/2000/svg"><g data-name="Layer 18"><path d="M62 21H11v-1.07l51.17-8.83A1 1 0 0063 9.94l-1.42-8.11A1 1 0 0060.42 1L1.83 11.12a1.08 1.08 0 00-.65.41 1.05 1.05 0 00-.17.75l.2 1.13A1 1 0 001 14v48a1 1 0 001 1h60a1 1 0 001-1V22a1 1 0 00-1-1zM3 15h6v10H3zm1.59 12L3 28.59V27zM3 35h58v2H3zm0-2v-2h58v2zm42.41-4l6-6h7.18l-6 6zm-2.82 0h-7.18l6-6h7.18zm-10 0h-7.18l6-6h7.18zm-10 0h-7.18l6-6h7.18zm32.82 0L61 23.41V29zm-36.82-6l-6 6H5.41l2-2H10a1 1 0 001-1v-3zm-8.26-9.93l1.08-1.57 7.05-1.22-5 7.19-2.46.43V14a1 1 0 00-.67-.93zm32.53-.67l-7 1.21 5-7.19 6.87-1.18zm7.58-7.63l7-1.22-4.85 7.17-7 1.21zm-17.33 9.31l-7 1.22 5-7.18 7-1.22zm-9.81 1.7l-7 1.21 5-7.18 7.05-1.22zm32.06-5.53l4.5-6.65 1 5.7zM8.65 12l-.71 1H3.17v-.07zM3 61V39h58v22z"/><path d="M5 17.1h2v2H5zM5 21h2v2H5zM15 49.61l1.14 1.9a1 1 0 001.72 0l1.14-1.9V55h2v-9a1 1 0 00-1.86-.51L17 49.06l-2.14-3.57A1 1 0 0013 46v9h2zM26.5 55a3.5 3.5 0 003.5-3.5v-3a3.5 3.5 0 00-7 0v3a3.5 3.5 0 003.5 3.5zM25 48.5a1.5 1.5 0 013 0v3a1.5 1.5 0 01-3 0zM45 55h5v-2h-4v-2h4v-2h-4v-2h4v-2h-5a1 1 0 00-1 1v8a1 1 0 001 1zM34.17 54.55a1 1 0 001.66 0l2-3A1 1 0 0038 51v-6h-2v5.7l-1 1.5-1-1.5V45h-2v6a1 1 0 00.17.55zM40 45h2v10h-2z"/><path d="M54 41H10a1 1 0 00-1 1v16a1 1 0 001 1h44a1 1 0 001-1V42a1 1 0 00-1-1zm-1 16H11V43h42z"/></g></svg>