<svg height="512" viewBox="0 0 128 128" width="512" xmlns="http://www.w3.org/2000/svg"><path d="M122.25 17.266H5.75A5.756 5.756 0 000 23.016V91.01a5.757 5.757 0 005.75 5.75h9.883l-3.068 4.44a6.079 6.079 0 0010 6.912l7.847-11.352h67.176l7.844 11.351a6.079 6.079 0 0010-6.912l-3.068-4.439h9.883A5.757 5.757 0 00128 91.01V23.016a5.756 5.756 0 00-5.75-5.75zM19.689 106.122a2.582 2.582 0 01-2.122 1.112 2.58 2.58 0 01-2.123-4.046l4.443-6.428h6.271zm92.867-2.934a2.58 2.58 0 01-2.123 4.046 2.585 2.585 0 01-2.123-1.112l-6.468-9.362h6.271zM124.5 91.01a2.253 2.253 0 01-2.25 2.25H5.75a2.253 2.253 0 01-2.25-2.25V23.016a2.253 2.253 0 012.25-2.25h116.5a2.253 2.253 0 012.25 2.25z"/><path d="M118.25 25.266H9.75A1.749 1.749 0 008 27.016V87.01a1.75 1.75 0 001.75 1.75h108.5a1.75 1.75 0 001.75-1.75V27.016a1.749 1.749 0 00-1.75-1.75zM116.5 85.26h-105V28.766h105z"/><path d="M41.375 47.922h7.3v19.932a1.75 1.75 0 003.5 0V47.922h7.3a1.75 1.75 0 000-3.5h-18.1a1.75 1.75 0 000 3.5zM75.963 68.527a1.749 1.749 0 003.23 0l9.047-21.681a1.75 1.75 0 10-3.23-1.346l-7.432 17.809L70.146 45.5a1.75 1.75 0 10-3.23 1.348z"/></svg>